<?xml version="1.0" encoding="UTF-8" standalone="no"?>
<!DOCTYPE svg PUBLIC "-//W3C//DTD SVG 1.1//EN" "http://www.w3.org/Graphics/SVG/1.1/DTD/svg11.dtd">
<svg width="100%" height="100%" viewBox="0 0 4961 3508" version="1.1" xmlns="http://www.w3.org/2000/svg" xmlns:xlink="http://www.w3.org/1999/xlink" xml:space="preserve" xmlns:serif="http://www.serif.com/" style="fill-rule:evenodd;clip-rule:evenodd;stroke-linecap:round;stroke-linejoin:round;stroke-miterlimit:1.5;">
    <g transform="matrix(0.777445,-0.035014,0.035014,0.777445,-205.951401,288.83995)">
        <g transform="matrix(1330.673149,0,0,1330.673149,6549.563991,1281.889764)">
        </g>
        <text x="243.504px" y="1281.89px" style="font-family:'Blone-Regular', 'Blone';font-size:1330.673px;fill:url(#_Linear1);">Battle F<tspan x="5153.688px " y="1281.89px ">o</tspan>r</text>
        <path d="M948.933,774.704C1005.306,791.07 1075.798,851.244 1100.107,938.476L1100.397,937.753C1100.825,936.682 1101.298,935.629 1101.814,934.597C1119.699,898.827 1141.592,880.48 1166.631,866.173C1183.26,856.67 1201.862,849.737 1221.83,837.598C1219.585,836.263 1217.338,834.833 1215.092,833.309C1184.149,812.304 1151.012,770.905 1129.769,721.872C1118.825,702.747 1096.089,651.329 1096.089,619.215C1096.089,611.571 1097.61,600.569 1101.202,592.575L1101.062,592.872C1101.062,592.872 1118.593,534.897 1273.902,511.517L1274.211,511.472C1293.859,508.665 1333.222,495.085 1386.552,495.085C1435.787,495.085 1487.683,488.432 1538.249,488.432C1577.041,488.432 1621.887,504.454 1700.908,528.878C1704.056,529.851 1707.023,531.174 1709.772,532.796L1709.847,532.832C1724.569,539.923 1780.024,566.357 1812.265,601.885C1821.735,612.321 1829.341,623.544 1834.658,635.261C1834.628,633.393 1834.612,631.59 1834.612,629.86C1834.612,603.334 1837.676,570.124 1850.153,547.546C1863.49,523.412 1884.799,507.061 1918.821,507.061C1938.014,507.061 1952.196,511.467 1964.079,517.05C1964.176,516.555 1964.267,516.07 1964.351,515.596C1968.453,492.374 1970.393,465.089 1973.569,446.037C1973.902,444.04 1974.38,442.07 1974.999,440.142C1982.312,417.392 2000.056,395.196 2026.348,378.036C2058.095,357.317 2102.918,343.389 2149.028,343.389C2202.357,343.389 2249.367,359.732 2273.834,394.877C2285.612,411.797 2293.117,433.313 2293.117,460.864C2293.117,476.202 2293.162,490.447 2294.334,502.87C2294.763,507.413 2296.035,513.203 2296.977,517.08C2307.376,515.681 2317.054,513.714 2326.733,512.639C2328.26,512.469 2329.794,512.384 2331.33,512.384C2377.288,512.384 2400.01,524.031 2413.181,540.004C2414.267,541.321 2415.307,542.712 2416.3,544.182C2429.735,521.906 2450.61,507.061 2483.027,507.061C2502.22,507.061 2516.401,511.467 2528.285,517.05C2528.382,516.555 2528.472,516.07 2528.556,515.596C2532.658,492.374 2534.599,465.089 2537.774,446.037C2538.107,444.04 2538.585,442.07 2539.205,440.142C2546.517,417.392 2564.261,395.196 2590.554,378.036C2622.301,357.317 2667.124,343.389 2713.233,343.389C2766.562,343.389 2813.573,359.732 2838.039,394.877C2849.817,411.797 2857.323,433.313 2857.323,460.864C2857.323,476.202 2857.367,490.447 2858.54,502.87C2858.968,507.413 2860.241,513.203 2861.183,517.08C2871.581,515.681 2881.259,513.714 2890.939,512.639C2892.465,512.469 2894,512.384 2895.536,512.384C2941.494,512.384 2964.216,524.031 2977.387,540.004C2989.381,554.55 2995.713,578.073 2995.713,617.884C2995.713,639.483 2999.536,708.475 2980.939,748.066C2966.815,778.135 2943.291,796.571 2908.842,796.571C2891.544,796.571 2882.229,791.248 2871.583,791.248C2868.933,791.248 2866.293,791.545 2863.655,792.01C2860.109,810.091 2848.008,874.441 2848.008,910.632C2848.008,942.332 2848.312,969.228 2851.356,991.34C2853.572,1007.441 2855.872,1020.314 2864.628,1028.331C2873.226,1036.205 2886.54,1037.88 2905.322,1037.994C2909.486,1036.653 2934.719,1028.685 2946.101,1028.685C2967.155,1028.685 2982.248,1035.098 2993.718,1044.655C2998.254,1048.434 3002.321,1052.836 3005.855,1057.933C3006.469,1040.994 3006.936,1024.149 3006.936,1007.771C3006.936,966.52 3004.274,923.939 3004.274,888.011C3004.274,851.296 3005.613,819.923 3009.594,780.781C3009.452,717.495 3002.944,649.002 3002.944,575.302C3002.944,548.689 3004.274,522.075 3004.274,494.131C3004.274,475.502 2997.621,451.55 2997.621,430.259C2997.621,382.194 3011.297,350.674 3029.008,329.525C3057.305,295.737 3098.653,286.17 3132.395,286.17L3265.463,286.17C3267.559,286.17 3269.653,286.328 3271.725,286.643C3319.966,293.984 3346.825,324.67 3360.458,365.045C3370.511,394.819 3372.293,430.704 3372.293,460.864C3372.293,507.438 3362.978,560.665 3362.978,615.223C3362.978,652.481 3364.309,691.071 3364.309,726.999C3364.309,757.066 3362.245,788.312 3360.06,819.905C3373.002,764.442 3394.298,710.713 3424.149,661.498C3424.767,660.48 3425.428,659.488 3426.131,658.526C3454.791,619.307 3500.989,560.046 3571.884,531.386L3571.926,531.369C3667.474,492.865 3647.516,485.771 3804.385,485.771C3862.691,485.771 3951.503,496.734 4000.874,542.71C4061.393,582.901 4085.371,594.461 4102.788,640.379C4103.063,641.105 4103.318,641.838 4103.552,642.578L4103.265,641.643C4103.265,641.643 4141.422,715.517 4141.422,756.274C4141.422,850.917 4125.315,901.502 4102.818,932.339C4094.968,943.099 4086.212,951.803 4076.602,959.136C4110.911,980.076 4152.068,1018.773 4152.068,1086.281C4152.068,1223.938 4059.481,1259.985 4013.062,1287.196C4009.338,1289.379 4005.313,1290.96 4001.137,1291.899C3996.573,1295.758 3981.289,1308.597 3973.812,1313.829C3966.047,1319.262 3958.338,1322.666 3951.29,1324.492C3934.813,1331.778 3882.395,1354.123 3845.636,1354.123C3806.732,1354.123 3769.191,1353.817 3731.678,1346.046C3617.392,1342.777 3534.365,1268.61 3495.707,1232.942C3471.065,1211.252 3439.814,1189.007 3419.575,1161.54L3421.15,1163.235C3415.583,1156.515 3406.99,1144.366 3398.009,1127.792C3385.12,1104.005 3369.598,1069.74 3358.678,1033.387C3361.281,1081.152 3364.309,1129.159 3364.309,1175.436C3364.309,1249.94 3347.106,1283.293 3326.236,1301.471C3305.944,1319.144 3277.339,1323.817 3239.81,1330.799C3237.299,1331.266 3234.75,1331.501 3232.196,1331.501C3226.873,1331.501 3221.55,1332.832 3216.228,1332.832C3196.268,1332.832 3176.308,1328.84 3156.347,1328.84C3143.041,1328.84 3131.065,1332.832 3119.089,1332.832C3114.773,1332.832 3110.484,1332.161 3106.374,1330.843C3066.882,1318.175 3043.165,1299.449 3027.874,1276.767C3021.701,1267.609 3016.977,1257.536 3013.392,1246.477C3009.509,1273.623 2993.871,1293.102 2969.134,1307.427C2944.05,1321.953 2905.179,1329.637 2865.339,1339.34C2844.49,1345.73 2823.506,1351.461 2801.058,1351.461C2800.012,1351.461 2798.967,1351.422 2797.925,1351.343C2641.271,1339.52 2642.897,1327.446 2595.312,1291.075C2594.467,1290.539 2593.609,1289.963 2592.741,1289.344C2585.447,1284.145 2562.786,1265.69 2545.883,1241.538C2533.045,1223.194 2523.944,1201.818 2522.714,1180.377C2512.133,1128.04 2509.264,1067.91 2509.264,1009.102C2509.264,957.206 2522.57,893.333 2522.57,837.445C2522.57,828.116 2519.913,808.185 2518.249,796.62C2506.263,798.569 2492.983,801.893 2481.696,801.893C2477.408,801.893 2465.108,800.965 2456.018,798.964C2447.224,797.028 2440.132,793.675 2435.984,790.91C2434.473,789.903 2433.03,788.798 2431.663,787.602C2426.096,782.731 2418.082,772.071 2413.141,755.096C2398.753,780.983 2376.314,796.571 2344.637,796.571C2327.338,796.571 2318.023,791.248 2307.378,791.248C2304.728,791.248 2302.087,791.545 2299.45,792.01C2295.903,810.091 2283.802,874.441 2283.802,910.632C2283.802,942.332 2284.107,969.228 2287.15,991.34C2289.366,1007.441 2291.667,1020.314 2300.422,1028.331C2309.021,1036.205 2322.335,1037.88 2341.117,1037.994C2345.281,1036.653 2370.513,1028.685 2381.896,1028.685C2402.949,1028.685 2418.043,1035.098 2429.512,1044.655C2440.083,1053.462 2448.108,1065.65 2452.764,1082.129C2456.657,1095.907 2458.121,1114.276 2458.121,1136.846C2458.121,1171.119 2454.203,1202.721 2450.097,1235.556C2449.196,1268.499 2432.865,1291.249 2404.928,1307.427C2379.845,1321.953 2340.974,1329.637 2301.134,1339.34C2280.285,1345.73 2259.3,1351.461 2236.852,1351.461C2235.807,1351.461 2234.762,1351.422 2233.72,1351.343C2077.066,1339.52 2078.691,1327.446 2031.107,1291.075C2030.261,1290.539 2029.404,1289.963 2028.536,1289.344C2021.241,1284.145 1998.581,1265.69 1981.678,1241.538C1968.84,1223.194 1959.739,1201.818 1958.508,1180.377C1947.928,1128.04 1945.058,1067.91 1945.058,1009.102C1945.058,957.206 1958.365,893.333 1958.365,837.445C1958.365,828.116 1955.708,808.185 1954.044,796.62C1942.058,798.569 1928.777,801.893 1917.491,801.893C1913.203,801.893 1900.903,800.965 1891.813,798.964C1883.019,797.028 1875.927,793.675 1871.779,790.91C1870.861,790.299 1869.969,789.651 1869.104,788.969C1876.643,836.789 1880.608,884.554 1880.608,935.915C1880.608,957.206 1877.947,979.827 1877.947,1001.118L1877.947,1131.524C1877.947,1164.791 1880.608,1195.396 1880.608,1223.34C1880.608,1266.098 1865.31,1292.392 1845.802,1308.961C1826.279,1325.542 1800.522,1332.832 1773.778,1332.832C1759.141,1332.832 1743.173,1330.171 1728.535,1330.171C1707.244,1330.171 1693.938,1334.163 1680.631,1334.163C1633.892,1334.163 1597.411,1332.8 1572.534,1324.884C1552.167,1318.404 1537.203,1307.905 1526.711,1293.787C1522.857,1288.602 1519.53,1282.84 1516.878,1276.386C1503.164,1287.242 1431.615,1334.457 1363.502,1335.476L1363.497,1335.477C1349.413,1336.866 1334.049,1338.155 1318.688,1338.155C1313.891,1338.155 1299.368,1333.905 1290.362,1331.427C1220.806,1329.614 1157.352,1294.617 1125.677,1229.803C1103.744,1185.938 1091.718,1162.465 1083.311,1141.347C1054.402,1210.877 1001.717,1261.682 929.352,1290.042C928.328,1290.443 927.288,1290.804 926.235,1291.123C879.659,1305.237 849.769,1325.614 797.546,1331.26L801.308,1330.44C792.038,1331.925 775.631,1332.832 770.451,1332.832C765.501,1332.832 760.603,1331.949 755.985,1330.238C754.223,1330.208 751.552,1330.171 749.16,1330.171C697.263,1330.171 636.053,1332.832 582.826,1332.832C542.905,1332.832 510.969,1319.525 476.372,1319.525C469.024,1319.525 462.17,1322.824 455.074,1324.84C444.158,1327.94 433.118,1330.171 421.814,1330.171C393.706,1330.171 371.19,1320.709 353.971,1305.803C315.518,1286.041 292.555,1265.113 277.876,1244.248C254.707,1211.316 251.587,1177.224 248.586,1140.211C248.496,1139.091 248.45,1137.969 248.45,1136.846C248.45,1131.524 249.781,1116.886 249.781,1100.918C249.781,1089.618 249.419,1077.314 246.594,1068.839C245.179,1064.594 244.458,1060.15 244.458,1055.675C244.458,999.787 248.45,946.56 248.45,886.68L248.45,868.05C248.45,849.009 250.018,824.262 254.705,812.252C254.815,811.969 254.927,811.688 255.04,811.411C254.531,763.761 251.111,711.259 251.111,664.457C251.111,606.292 253.764,541.419 267.104,441.93C268.107,381.407 299.803,344.084 339.966,321.078C389.486,292.713 453.982,289.642 468.547,287.822C470.26,287.608 471.984,287.5 473.71,287.5C528.268,287.5 581.495,291.492 636.053,291.492C667.989,291.492 703.917,284.839 753.152,284.839C800.238,284.839 853.125,287.036 895.797,301.75C899.209,302.927 902.453,304.542 905.448,306.555C994.041,366.101 983.668,336.879 1045.348,432.852C1054.768,445.318 1087.527,494.365 1087.527,575.302C1087.527,660.148 1054.708,695.12 1009.022,737.543L1008.698,737.841C1000.313,745.464 977.521,756.523 956.368,769.481C954.12,770.858 951.466,772.772 948.933,774.704ZM1435.482,793.04C1463.944,796.443 1493.321,802.094 1525.708,802.453C1525.326,797.804 1524.296,794.182 1521.613,791.591C1518.552,788.634 1513.904,788.114 1508.638,787.158C1497.04,785.051 1483.207,784.644 1467.229,784.6C1456.503,786.546 1445.953,789.546 1435.482,793.04ZM3801.037,1020.507C3772.397,1015.963 3744.706,1007.255 3715.855,995.105C3721.146,1000.746 3729.475,1004.365 3737.589,1007.711C3758.284,1016.247 3782.522,1019.699 3801.037,1020.507ZM793.072,1289.874C842.307,1284.551 870.251,1264.591 914.163,1251.284C1012.633,1212.695 1067.191,1124.87 1067.191,1002.448C1067.191,899.987 990.012,826.8 932.793,813.493C915.494,809.501 899.526,788.21 899.526,774.903C899.526,742.967 966.059,720.346 980.697,707.039C1017.956,672.441 1045.9,644.497 1045.9,575.302C1045.9,504.777 1016.625,463.526 1011.302,456.872C954.083,367.717 963.398,395.661 882.227,341.104C843.638,327.797 795.733,326.466 753.152,326.466C703.917,326.466 667.989,333.12 636.053,333.12C581.495,333.12 528.268,329.128 473.71,329.128C452.42,331.789 308.707,334.45 308.707,444.896C295.4,543.366 292.739,607.238 292.739,664.457C292.739,715.023 296.731,772.242 296.731,822.808C290.077,826.8 290.077,850.752 290.077,868.05L290.077,886.68C290.077,946.56 286.085,999.787 286.085,1055.675C290.077,1067.651 291.408,1084.95 291.408,1100.918C291.408,1116.886 290.077,1131.524 290.077,1136.846C294.07,1186.081 294.07,1229.994 377.902,1271.244C388.547,1281.89 403.185,1288.543 421.814,1288.543C440.444,1288.543 457.742,1277.898 476.372,1277.898C510.969,1277.898 542.905,1291.204 582.826,1291.204C636.053,1291.204 697.263,1288.543 749.16,1288.543C761.136,1288.543 765.128,1288.543 770.451,1291.204C774.443,1291.204 789.08,1291.204 793.072,1289.874ZM675.973,1092.934C596.132,1092.934 580.164,1023.739 580.164,1005.11L580.164,975.835C580.164,942.568 582.826,911.963 613.431,903.979C638.714,890.672 657.343,881.357 678.634,881.357C749.16,895.995 778.435,906.64 778.435,979.827C778.435,1067.651 733.192,1092.934 675.973,1092.934ZM624.833,944.014C624.262,945.979 623.188,949.878 622.847,952.503C621.903,959.792 621.792,967.718 621.792,975.835L621.792,1005.11C621.792,1015.316 632.234,1051.307 675.973,1051.307C693.163,1051.307 709.105,1049.332 720.199,1038.937C732.219,1027.675 736.807,1008.415 736.807,979.827C736.807,962.549 736.289,950.712 730.308,942.732C725.915,936.872 718.607,934.621 709.693,931.75C699.776,928.558 688.262,925.918 675.067,923.139C661.428,924.317 649.4,932.089 632.819,940.815C630.274,942.155 627.597,943.227 624.833,944.014ZM660.005,703.047C577.503,703.047 574.842,651.151 574.842,612.561C574.842,558.004 621.415,511.43 646.698,511.43C694.602,511.43 743.837,527.398 743.837,592.601C743.837,653.812 686.618,703.047 686.618,703.047L660.005,703.047ZM650.082,553.072C648.041,554.395 642.808,557.895 639.741,560.925C627.692,572.832 616.469,591.664 616.469,612.561C616.469,620.004 616.496,628.068 617.6,636.019C618.437,642.048 619.342,648.379 623.872,652.925C630.555,659.632 642.205,661.42 660.005,661.42L670.016,661.419C682.673,648 702.21,622.453 702.21,592.601C702.21,580.309 699.981,571.242 694.081,565.371C683.401,554.746 666.521,553.224 650.082,553.072ZM2290.079,1299.189C2349.96,1284.551 2408.509,1277.898 2408.509,1232.655C2412.501,1200.719 2416.493,1170.113 2416.493,1136.846C2416.493,1094.265 2412.501,1070.313 2381.896,1070.313C2369.92,1070.313 2353.952,1079.627 2343.306,1079.627C2247.498,1079.627 2242.175,1023.739 2242.175,910.632C2242.175,849.421 2252.82,762.927 2275.442,754.943C2286.087,752.282 2296.733,749.621 2307.378,749.621C2318.023,749.621 2327.338,754.943 2344.637,754.943C2400.525,754.943 2389.88,644.497 2389.88,617.884C2389.88,565.988 2385.888,554.012 2331.33,554.012C2319.354,555.342 2307.378,558.004 2294.071,559.334C2252.82,559.334 2251.49,516.753 2251.49,460.864C2251.49,402.315 2203.585,385.016 2149.028,385.016C2086.486,385.016 2026.606,415.622 2014.63,452.88C2007.977,492.801 2006.646,568.649 1980.032,568.649C1960.072,568.649 1950.758,548.689 1918.821,548.689C1878.901,548.689 1876.24,596.593 1876.24,629.86C1876.24,668.449 1884.224,746.959 1894.869,756.274C1898.861,758.935 1913.499,760.266 1917.491,760.266C1933.459,760.266 1953.419,753.613 1968.056,753.613C1998.662,753.613 1999.992,809.501 1999.992,837.445C1999.992,893.333 1986.686,957.206 1986.686,1009.102C1986.686,1066.321 1989.347,1124.87 1999.992,1175.436C1999.992,1216.687 2053.219,1256.607 2054.55,1256.607C2098.462,1289.874 2095.801,1299.189 2236.852,1309.834C2255.482,1309.834 2272.78,1304.511 2290.079,1299.189ZM1361.269,1293.866C1425.142,1293.866 1493.006,1243.3 1493.006,1241.97C1524.942,1224.671 1532.926,1207.372 1556.878,1183.42C1558.209,1183.42 1558.209,1191.404 1558.209,1198.057C1555.548,1211.364 1551.556,1222.009 1551.556,1237.978C1551.556,1291.204 1598.129,1292.535 1680.631,1292.535C1693.938,1292.535 1707.244,1288.543 1728.535,1288.543C1743.173,1288.543 1759.141,1291.204 1773.778,1291.204C1807.045,1291.204 1838.981,1276.567 1838.981,1223.34C1838.981,1195.396 1836.32,1164.791 1836.32,1131.524L1836.32,1001.118C1836.32,979.827 1838.981,957.206 1838.981,935.915C1838.981,844.098 1825.674,764.258 1801.722,673.772C1801.722,615.223 1688.615,569.98 1688.615,568.649C1615.428,546.028 1574.177,530.059 1538.249,530.059C1487.683,530.059 1435.787,536.713 1386.552,536.713C1335.987,536.713 1298.728,550.02 1280.098,552.681C1156.346,571.31 1139.047,609.9 1139.047,609.9C1137.716,612.561 1137.716,616.553 1137.716,619.215C1137.716,647.159 1160.338,693.732 1166.991,703.047C1192.274,762.927 1237.517,810.831 1270.784,810.831C1300.058,810.831 1317.357,785.549 1342.64,780.226C1383.891,772.242 1422.48,749.621 1463.731,742.967C1531.596,742.967 1567.524,749.621 1567.524,816.154C1567.524,842.768 1538.249,844.098 1528.934,844.098C1481.03,844.098 1439.779,832.122 1398.528,832.122C1333.325,832.122 1262.8,860.066 1249.493,869.381C1204.25,898.656 1165.66,899.987 1139.047,953.213C1120.418,999.787 1108.441,1017.086 1108.441,1080.958C1119.087,1126.201 1127.071,1139.508 1162.999,1211.364C1188.282,1263.26 1240.178,1289.874 1296.066,1289.874C1301.389,1291.204 1314.696,1296.527 1318.688,1296.527C1333.325,1296.527 1347.963,1295.196 1361.269,1293.866ZM1438.448,1090.273C1418.488,1086.281 1411.835,1074.305 1411.835,1054.345C1411.835,1035.715 1413.166,1014.424 1445.102,998.456C1446.432,1001.118 1447.763,1002.448 1450.424,1002.448C1459.739,1002.448 1451.755,987.811 1489.014,987.811C1500.99,994.464 1523.612,1003.779 1523.612,1015.755C1523.612,1043.699 1518.289,1059.667 1475.707,1087.611C1474.377,1088.942 1467.723,1094.265 1465.062,1094.265C1455.747,1094.265 1446.432,1094.265 1438.448,1090.273ZM1453.738,1043.971C1452.871,1046.398 1453.092,1048.945 1453.296,1051.383C1453.659,1051.522 1454.019,1051.665 1454.378,1051.814C1462.025,1046.754 1467.692,1042.656 1471.831,1038.834C1470.65,1039.561 1469.508,1040.167 1468.441,1040.601C1464.223,1042.315 1459.441,1043.606 1453.738,1043.971ZM3845.636,1312.495C3881.564,1312.495 3934.791,1285.882 3938.783,1284.551C3952.09,1284.551 3976.042,1251.284 3992.01,1251.284C4030.6,1228.663 4110.44,1200.719 4110.44,1086.281C4110.44,1010.432 4038.584,985.15 4021.285,978.496C3930.799,978.496 3882.895,1062.329 3809.708,1062.329C3763.134,1062.329 3668.657,1046.361 3668.657,981.158C3672.649,966.52 3687.286,950.552 3717.892,950.552C3761.804,970.512 3801.724,982.488 3846.967,982.488C3926.807,982.488 3984.026,955.875 3990.68,954.544C4054.552,931.923 4099.795,918.616 4099.795,756.274C4099.795,717.684 4066.528,664.457 4063.867,655.143C4049.229,616.553 4026.608,609.9 3974.711,575.302C3933.461,534.051 3854.951,527.398 3804.385,527.398C3658.011,527.398 3676.641,534.051 3587.486,569.98C3524.944,595.262 3485.024,648.489 3459.741,683.087C3410.506,764.258 3386.554,858.736 3386.554,951.883C3386.554,1029.062 3443.773,1128.862 3453.088,1136.846C3471.717,1162.129 3500.992,1182.089 3523.613,1202.049C3558.211,1233.986 3632.728,1303.181 3736.521,1304.511C3772.449,1312.495 3808.377,1312.495 3845.636,1312.495ZM3755.15,841.437C3739.182,836.114 3703.254,821.477 3703.254,792.202C3703.254,773.573 3727.206,756.274 3731.198,746.959C3737.852,729.66 3763.134,717.684 3771.118,717.684C3808.377,717.684 3846.967,717.684 3846.967,788.21C3846.967,828.13 3821.684,841.437 3755.15,841.437ZM3748.336,792.406C3749.351,793.191 3750.377,793.935 3751.206,794.426C3754.965,796.654 3758.831,798.402 3762.257,799.756L3762.26,799.756C3775.504,799.547 3786.576,798.699 3795.674,796.766C3798.779,796.106 3802.925,794.525 3804.825,793.766C3805.032,792.334 3805.339,789.924 3805.339,788.21C3805.339,780.954 3804.853,774.777 3803.754,769.534C3803.017,766.014 3803.152,763.156 3801.175,761.938C3794.434,757.784 3785.678,758.685 3776.843,759.137L3769.157,764.044C3766.612,769.642 3761.523,777.096 3754.503,784.988C3752.91,786.777 3750.474,789.752 3748.336,792.406ZM3232.196,1289.874C3289.415,1279.228 3322.682,1285.882 3322.682,1175.436C3322.682,1094.265 3313.367,1007.771 3313.367,926.6C3313.367,860.066 3322.682,790.871 3322.682,726.999C3322.682,691.071 3321.351,652.481 3321.351,615.223C3321.351,560.665 3330.666,507.438 3330.666,460.864C3330.666,408.968 3326.674,337.112 3265.463,327.797L3132.395,327.797C3093.806,327.797 3039.248,342.435 3039.248,430.259C3039.248,451.55 3045.902,475.502 3045.902,494.131C3045.902,522.075 3044.571,548.689 3044.571,575.302C3044.571,649.82 3051.224,719.015 3051.224,782.887C3047.232,821.477 3045.902,852.082 3045.902,888.011C3045.902,923.939 3048.563,966.52 3048.563,1007.771C3048.563,1055.675 3044.571,1107.572 3044.571,1154.145C3044.571,1224.671 3048.563,1268.583 3119.089,1291.204C3131.065,1291.204 3143.041,1287.212 3156.347,1287.212C3176.308,1287.212 3196.268,1291.204 3216.228,1291.204C3221.55,1291.204 3226.873,1289.874 3232.196,1289.874ZM2854.285,1299.189C2914.165,1284.551 2972.715,1277.898 2972.715,1232.655C2976.707,1200.719 2980.699,1170.113 2980.699,1136.846C2980.699,1094.265 2976.707,1070.313 2946.101,1070.313C2934.125,1070.313 2918.157,1079.627 2907.512,1079.627C2811.703,1079.627 2806.38,1023.739 2806.38,910.632C2806.38,849.421 2817.026,762.927 2839.647,754.943C2850.293,752.282 2860.938,749.621 2871.583,749.621C2882.229,749.621 2891.544,754.943 2908.842,754.943C2964.731,754.943 2954.085,644.497 2954.085,617.884C2954.085,565.988 2950.093,554.012 2895.536,554.012C2883.559,555.342 2871.583,558.004 2858.277,559.334C2817.026,559.334 2815.695,516.753 2815.695,460.864C2815.695,402.315 2767.791,385.016 2713.233,385.016C2650.692,385.016 2590.811,415.622 2578.835,452.88C2572.182,492.801 2570.851,568.649 2544.238,568.649C2524.278,568.649 2514.963,548.689 2483.027,548.689C2443.107,548.689 2440.445,596.593 2440.445,629.86C2440.445,668.449 2448.429,746.959 2459.075,756.274C2463.067,758.935 2477.704,760.266 2481.696,760.266C2497.664,760.266 2517.624,753.613 2532.262,753.613C2562.867,753.613 2564.198,809.501 2564.198,837.445C2564.198,893.333 2550.891,957.206 2550.891,1009.102C2550.891,1066.321 2553.553,1124.87 2564.198,1175.436C2564.198,1216.687 2617.425,1256.607 2618.756,1256.607C2662.668,1289.874 2660.006,1299.189 2801.058,1309.834C2819.687,1309.834 2836.986,1304.511 2854.285,1299.189ZM4789.969,640.242C4793.644,657.197 4797.373,670.335 4801.598,680.365C4804.075,686.246 4803.796,690.694 4807.713,690.694C4876.908,690.694 4939.449,677.388 5016.629,677.388C5045.39,677.388 5085.148,683.75 5112.943,710.67C5127.134,724.416 5139.195,743.511 5144.509,770.845C5150.674,744.04 5159.153,717.51 5170.435,693.011C5192.252,645.636 5224.454,605.801 5268.609,582.425C5271.074,581.12 5273.664,580.066 5276.34,579.279C5284.858,576.773 5290.76,570.727 5297.234,565.876C5306.991,558.566 5317.001,551.934 5328.299,547.384C5352.525,537.418 5391.037,523.533 5416.938,520.834C5466.146,504.522 5526.121,492.424 5599.463,492.424C5632.183,492.424 5688.173,495.93 5745.821,530.207C5746.135,530.394 5746.445,530.584 5746.753,530.778C5756.667,532.552 5821.371,545.392 5860.436,584.457C5865.241,589.262 5893.714,615.548 5905.054,631.885C5908.837,637.336 5911.477,642.661 5913.262,647.558C5931.196,678.286 5944.619,705.183 5954.664,730.221C5954.451,712.413 5954.377,694.495 5954.377,676.433C5954.377,641.867 5957.61,601.151 5971.358,568.941C5989.234,527.06 6021.921,496.416 6081.167,496.416L6107.781,496.416C6140.758,496.416 6194.299,500.068 6227.354,515.996C6250.509,527.154 6265.917,543.902 6272.242,564.297C6273.086,566.458 6273.898,568.836 6274.654,571.41C6327.666,507.645 6393.741,488.432 6453.756,488.432C6465.732,488.432 6475.046,489.763 6487.022,489.763C6494.567,489.763 6501.97,491.813 6508.439,495.695C6517.579,501.178 6584.538,525.336 6584.538,625.868C6584.538,765.859 6553.617,827.016 6513.89,855.317C6484.959,875.927 6448.558,881.734 6405.851,881.734C6381.899,881.734 6375.246,879.072 6347.302,879.072C6338.471,879.072 6331.264,879.847 6325.783,883.226C6318.928,887.452 6316.531,895.619 6314.28,905.613C6311.442,918.215 6310.419,933.222 6310.419,950.552C6310.419,995.795 6317.073,1059.667 6317.073,1112.894C6317.073,1170.692 6315.703,1223.64 6302.533,1262.233C6293.614,1288.371 6279.632,1309.119 6259.935,1323.829C6240.54,1338.315 6215.123,1347.469 6180.968,1347.469C6107.053,1347.469 6060.399,1341.141 6031.033,1330.819C6001.92,1320.585 5985.243,1305.806 5974.8,1289.348C5963.949,1272.246 5959.699,1252.143 5959.699,1228.663C5959.699,1178.099 5959.064,1128.17 5958.671,1076.243C5946.977,1109.204 5930.3,1144.505 5906.754,1179.462C5884.119,1222.734 5868.102,1230.343 5854.477,1236.313C5851.33,1237.692 5847.868,1237.872 5843.698,1241.208C5832.861,1249.878 5824.957,1256.554 5816.448,1264.856C5801.039,1286.387 5787.057,1292.08 5773.757,1295.648C5770.275,1296.582 5766.55,1296.037 5762.305,1297.643C5699.493,1344.519 5666.784,1333.128 5616.639,1340.114L5616.632,1340.115C5603.332,1343.226 5588.646,1344.808 5575.511,1344.808C5574.307,1344.808 5573.104,1344.756 5571.905,1344.651C5538.667,1341.761 5514.123,1342.697 5486.653,1335.518C5424.326,1319.954 5411.378,1323.355 5377.329,1314.849C5346.856,1310.354 5315.25,1291.073 5287.293,1263.31C5252.927,1229.181 5223.246,1182.824 5206.287,1151.278C5185.616,1124.257 5136.458,1073.966 5131.156,922C5127.035,935.401 5118.419,958.526 5102.899,976.766C5086.267,996.314 5062.935,1010.809 5031.266,1010.809C5018.505,1010.809 5005.747,1010.734 4993,1009.461C4965.824,1009.066 4936.475,1001.881 4906.501,994.205C4882.612,988.087 4858.215,981.534 4834.326,981.534C4812.888,981.534 4793.555,983.703 4772.41,986.935C4771.862,988.935 4771.301,991.176 4771.031,992.853C4769.685,1001.198 4769.5,1009.616 4769.5,1015.755C4769.5,1078.297 4784.137,1144.83 4784.137,1212.695C4784.137,1259.138 4771.888,1288.005 4755.974,1307.136C4738.384,1328.282 4714.987,1339.16 4689.159,1344.701C4668.456,1349.143 4645.776,1348.699 4627.929,1354.648C4623.684,1356.063 4619.239,1356.784 4614.765,1356.784C4602.789,1356.784 4588.152,1358.115 4573.514,1358.115C4547.595,1358.115 4522.558,1352.242 4508.664,1341.837C4491.651,1331.079 4461.974,1307.644 4439.08,1280.82C4416.161,1253.965 4401.481,1223.544 4401.481,1200.719C4401.481,1184.751 4406.804,1163.46 4406.804,1148.822C4406.804,1102.249 4402.812,1055.675 4402.812,1009.102C4402.812,918.38 4414.504,845.846 4414.783,731.17C4403.412,673.828 4405.634,622.889 4401.61,571.925C4401.524,570.835 4401.481,569.742 4401.481,568.649C4401.481,514.027 4406.977,469.195 4419.578,406.18C4428.803,359.396 4445.906,331.261 4465.335,313.392C4495.163,285.959 4533.236,280.847 4573.514,280.847C4610.269,280.847 4628.299,283.512 4656.713,290.126C4671.142,289.914 4685.783,288.831 4702.59,288.831C4730.139,288.831 4762.535,289.606 4783.495,294.144C4840.434,293.927 4898.591,290.162 4956.748,290.162C5148.82,290.162 5193.128,339.652 5207.778,411.272C5208.339,414.017 5208.622,416.812 5208.622,419.614C5208.622,486.569 5205.719,532.732 5196.93,564.462C5188.676,594.257 5175.245,614.325 5156.998,628.596C5131.668,648.406 5093.464,656.85 5033.927,656.85C5011.725,656.85 4989.32,649.58 4967.085,642.148C4916.536,641.216 4879.705,630.348 4838.434,624.928C4820.098,625.137 4806.606,627.636 4797.174,632.811C4793.399,634.882 4790.963,637.447 4789.969,640.242ZM4789.925,640.37C4789.856,640.574 4789.795,640.778 4789.741,640.984C4789.973,642.193 4790.191,643.403 4790.367,644.519L4789.925,640.37ZM4614.765,1315.157C4662.669,1299.189 4742.51,1323.141 4742.51,1212.695C4742.51,1144.83 4727.872,1078.297 4727.872,1015.755C4727.872,993.134 4730.534,946.56 4761.139,946.56C4786.422,942.568 4809.044,939.907 4834.326,939.907C4888.884,939.907 4946.103,967.851 4995.338,967.851C5007.314,969.182 5019.29,969.182 5031.266,969.182C5080.501,969.182 5092.477,903.979 5093.808,901.317C5100.461,868.05 5105.784,837.445 5105.784,802.847C5105.784,726.999 5049.895,719.015 5016.629,719.015C4939.449,719.015 4876.908,732.322 4807.713,732.322C4781.099,732.322 4763.801,716.354 4749.163,648.489C4749.163,647.159 4747.833,644.497 4747.833,643.167C4747.833,615.223 4769.123,583.286 4840.98,583.286C4883.561,588.609 4920.82,600.585 4974.047,600.585C4994.007,607.238 5013.967,615.223 5033.927,615.223C5151.027,615.223 5166.995,591.27 5166.995,419.614C5155.019,361.064 5113.768,331.789 4956.748,331.789C4896.868,331.789 4836.988,335.781 4778.438,335.781C4761.139,330.458 4729.203,330.458 4702.59,330.458C4683.96,330.458 4667.992,331.789 4652.024,331.789C4624.08,325.136 4608.112,322.474 4573.514,322.474C4524.279,322.474 4477.706,326.466 4460.407,414.291C4448.431,474.171 4443.108,516.753 4443.108,568.649C4447.1,619.215 4444.439,669.78 4456.415,726.999C4456.415,844.098 4444.439,917.285 4444.439,1009.102C4444.439,1055.675 4448.431,1102.249 4448.431,1148.822C4448.431,1163.46 4443.108,1184.751 4443.108,1200.719C4443.108,1239.308 4518.957,1303.181 4533.594,1308.503C4541.578,1315.157 4557.546,1316.487 4573.514,1316.487C4588.152,1316.487 4602.789,1315.157 4614.765,1315.157ZM5608.778,1299.189C5654.021,1292.535 5683.296,1305.842 5740.515,1261.93C5757.813,1252.615 5768.459,1261.93 5784.427,1237.978C5795.072,1227.332 5804.387,1219.348 5817.694,1208.703C5837.654,1192.735 5845.638,1207.372 5870.921,1158.137C5930.801,1070.313 5942.777,979.827 5942.777,938.576C5942.777,832.122 5940.116,774.903 5874.913,664.457C5874.913,653.812 5836.323,619.215 5831,613.892C5787.088,569.98 5733.861,576.633 5724.547,565.988C5675.312,536.713 5627.407,534.051 5599.463,534.051C5528.938,534.051 5471.719,546.028 5425.145,561.996C5403.854,561.996 5366.596,576.633 5343.974,585.948C5324.014,593.932 5310.707,612.561 5288.086,619.215C5197.6,667.119 5172.317,802.847 5172.317,894.664C5172.317,1055.675 5222.883,1103.58 5241.512,1128.862C5266.795,1176.767 5326.675,1267.252 5385.225,1273.906C5421.153,1283.22 5433.129,1279.228 5497.002,1295.196C5522.284,1301.85 5544.906,1300.519 5575.511,1303.181C5586.157,1303.181 5598.133,1301.85 5608.778,1299.189ZM5523.615,993.134C5469.057,993.134 5458.412,957.206 5458.412,918.616C5458.412,866.72 5499.663,820.146 5512.97,814.823C5520.954,813.493 5531.599,813.493 5539.583,813.493C5550.228,817.485 5555.551,817.485 5560.874,817.485C5568.858,817.485 5568.858,816.154 5571.519,813.493C5628.738,813.493 5660.674,868.05 5660.674,890.672C5656.682,909.301 5644.706,997.126 5575.511,997.126C5558.212,997.126 5540.914,993.134 5523.615,993.134ZM5618.371,890.405C5617.125,887.433 5614.542,881.636 5611.879,877.903C5605.269,868.634 5595.031,859.248 5581.172,856.169C5576.667,857.771 5570.437,859.112 5560.874,859.112C5553.271,859.112 5545.656,859.175 5532.593,855.1C5531.546,855.104 5530.486,855.115 5529.427,855.137C5521.184,865.254 5500.039,893.639 5500.039,918.616C5500.039,929.663 5498.62,941.076 5505.706,947.781C5509.408,951.284 5515.454,951.506 5523.615,951.506C5540.914,951.506 5558.213,955.498 5575.511,955.498C5591.564,955.498 5599.677,943.536 5605.311,932.268C5612.862,917.167 5616.38,900.911 5618.371,890.405ZM6180.968,1305.842C6274.115,1305.842 6275.445,1218.017 6275.445,1112.894C6275.445,1059.667 6268.792,995.795 6268.792,950.552C6268.792,876.034 6287.421,837.445 6347.302,837.445C6375.246,837.445 6381.899,840.106 6405.851,840.106C6488.353,840.106 6542.911,822.808 6542.911,625.868C6542.911,552.681 6493.676,535.382 6487.022,531.39C6475.046,531.39 6465.732,530.059 6453.756,530.059C6395.206,530.059 6330.003,552.681 6283.429,631.191C6271.453,651.151 6260.808,665.788 6252.824,665.788C6235.525,665.788 6242.178,592.601 6232.864,577.964C6223.549,542.035 6147.701,538.043 6107.781,538.043L6081.167,538.043C6003.988,538.043 5996.004,617.884 5996.004,676.433C5996.004,753.613 5997.335,828.13 6005.319,902.648C5998.665,934.584 5999.996,973.174 5999.996,1005.11C5999.996,1083.619 6001.327,1155.476 6001.327,1228.663C6001.327,1277.898 6021.287,1305.842 6180.968,1305.842Z"/>
    </g>
    <g transform="matrix(0.991795,-0.12784,0.258718,2.007156,-92.544438,-1020.994699)">
        <path d="M3564.918,1275.903L3907.154,1665.473L3222.681,1665.473L3564.918,1275.903Z" style="fill:url(#_Linear2);stroke:black;stroke-width:20.36px;"/>
    </g>
    <g transform="matrix(1,0,0,1,-145.517879,42.816841)">
        <path d="M3702.929,1401.75L4155.074,1304.373C4155.074,1304.373 4289.157,1476.797 4133.515,1514.565C3993.734,1548.485 3949.993,1399.611 3949.993,1399.611C3949.993,1399.611 3956.655,1556.936 3825.945,1576.526C3752.379,1587.552 3702.929,1401.75 3702.929,1401.75Z"/>
        <path d="M3698.806,1382.606L4150.951,1285.228C4158.304,1283.645 4165.915,1286.413 4170.533,1292.351C4170.533,1292.351 4206.382,1338.552 4221.448,1389.78C4231.622,1424.376 4231.965,1460.891 4211.457,1489.588C4197.965,1508.467 4175.165,1524.61 4138.134,1533.596C4046.975,1555.717 3991.959,1508.995 3961.82,1465.827C3960.101,1472.78 3958.008,1479.962 3955.462,1487.211C3938.767,1534.748 3903.207,1584.749 3828.848,1595.893C3800.375,1600.161 3773.496,1583.815 3751.506,1555.703C3709.73,1502.296 3684.005,1406.787 3684.005,1406.787C3682.627,1401.61 3683.43,1396.095 3686.226,1391.526C3689.023,1386.958 3693.569,1383.734 3698.806,1382.606ZM3727.742,1416.439C3735.035,1439.249 3748.845,1477.773 3767.735,1509.825C3776.549,1524.783 3786.395,1538.339 3797.436,1547.537C3805.376,1554.15 3813.758,1558.551 3823.043,1557.159C3879.394,1548.714 3905.856,1510.258 3918.508,1474.233C3931.86,1436.215 3930.427,1400.439 3930.427,1400.439C3930.008,1390.552 3937.032,1381.906 3946.795,1380.29C3956.558,1378.674 3965.992,1384.596 3968.782,1394.09C3968.782,1394.09 4006.548,1525.224 4128.897,1495.534C4154.127,1489.412 4170.399,1479.678 4179.591,1466.816C4193.11,1447.898 4190.579,1423.637 4183.872,1400.831C4174.722,1369.716 4156.678,1340.765 4146.688,1326.211L3727.742,1416.439Z"/>
    </g>
    <g transform="matrix(-0.521076,0.267497,-1.087235,-2.117903,7713.885803,4235.042229)">
        <path d="M4171.242,1691.086L3610.729,1691.086C3610.729,1656.374 3736.204,1628.235 3890.986,1628.235C4045.767,1628.235 4171.242,1656.374 4171.242,1691.086Z" style="fill:white;"/>
        <clipPath id="_clip3">
            <path d="M4171.242,1691.086L3610.729,1691.086C3610.729,1656.374 3736.204,1628.235 3890.986,1628.235C4045.767,1628.235 4171.242,1656.374 4171.242,1691.086Z"/>
        </clipPath>
        <g clip-path="url(#_clip3)">
            <g transform="matrix(-1.518842,-0.191834,0.779704,-0.373686,8414.093209,3062.360418)">
                <path d="M3746.342,1817.389L4009.05,1680.503" style="fill:none;stroke:black;stroke-width:25.83px;"/>
            </g>
        </g>
        <path d="M4171.242,1691.086L3610.729,1691.086C3610.729,1656.374 3736.204,1628.235 3890.986,1628.235C4045.767,1628.235 4171.242,1656.374 4171.242,1691.086Z" style="fill:none;stroke:black;stroke-width:11.06px;"/>
    </g>
    <g transform="matrix(1.136028,0.135805,-0.116951,0.978312,-493.490034,-114.111413)">
        <text x="667.913px" y="2741.339px" style="font-family:'Blone-Regular', 'Blone';font-size:1666.667px;fill:rgb(255,207,0);">L</text>
        <path d="M1279.715,2787.411C1266.891,2789.243 1254.071,2789.324 1241.247,2789.324C1202.913,2789.324 1167.913,2777.658 1132.913,2777.658C1095.65,2777.658 1061.722,2777.579 1026.211,2772.659C981.819,2772.741 938.991,2775.991 892.913,2775.991C831.18,2775.991 770.357,2762.079 732.521,2674.457C732.115,2673.519 731.749,2672.558 731.422,2671.579C702.089,2583.579 692.841,2452.534 692.841,2319.672C692.841,2241.339 711.174,2171.339 711.174,2089.672C711.174,1944.672 702.841,1799.672 702.841,1654.672C702.841,1620.996 704.513,1600.822 712.906,1583.311C718.982,1570.632 728.559,1558.728 745.055,1545.903C745.055,1545.903 812.547,1491.686 891.247,1491.686C919.3,1491.686 948.748,1499.101 975.897,1506.793C998.355,1513.156 1018.859,1520.02 1034.58,1520.02C1040.16,1520.02 1045.616,1521.928 1050.268,1525.506C1125.589,1583.445 1129.653,1642.233 1129.653,1733.005C1129.653,1801.339 1124.653,1876.339 1124.653,1943.005C1124.653,1996.339 1129.653,2053.005 1129.653,2114.672C1129.653,2176.339 1126.32,2231.339 1126.32,2291.339L1126.32,2403.005C1126.32,2413.385 1133.653,2416.525 1140.139,2418.529C1149.572,2421.444 1159.479,2421.686 1166.247,2421.686C1184.58,2421.686 1204.58,2420.02 1222.913,2420.02C1267.913,2420.02 1326.247,2391.686 1392.913,2391.686C1530.501,2391.686 1586.236,2462.406 1596.064,2546.925C1596.234,2548.388 1596.32,2549.862 1596.32,2551.339C1596.32,2617.584 1592.631,2653.404 1579.473,2681.136C1570.064,2700.968 1555.907,2717.426 1533.178,2736.167C1527.912,2740.822 1474.119,2785.991 1369.58,2785.991C1352.913,2785.991 1334.58,2784.324 1317.913,2784.324C1304.161,2784.324 1290.411,2785.883 1279.715,2787.411ZM1276.247,2754.672C1287.913,2753.005 1302.913,2751.339 1317.913,2751.339C1334.58,2751.339 1352.913,2753.005 1369.58,2753.005C1467.913,2753.005 1516.247,2709.672 1516.247,2709.672C1562.913,2671.339 1567.913,2648.005 1567.913,2551.339C1559.58,2479.672 1509.58,2424.672 1392.913,2424.672C1326.247,2424.672 1267.913,2453.005 1222.913,2453.005C1204.58,2453.005 1184.58,2454.672 1166.247,2454.672C1144.58,2454.672 1097.913,2451.339 1097.913,2403.005L1097.913,2291.339C1097.913,2231.339 1101.247,2176.339 1101.247,2114.672C1101.247,2053.005 1096.247,1996.339 1096.247,1943.005C1096.247,1876.339 1101.247,1801.339 1101.247,1733.005C1101.247,1654.672 1099.58,1603.005 1034.58,1553.005C999.58,1553.005 942.913,1524.672 891.247,1524.672C821.247,1524.672 761.247,1573.005 761.247,1573.005C731.247,1596.339 731.247,1611.339 731.247,1654.672C731.247,1799.672 739.58,1944.672 739.58,2089.672C739.58,2171.339 721.247,2241.339 721.247,2319.672C721.247,2448.005 729.58,2574.672 757.913,2659.672C789.58,2733.005 841.247,2743.005 892.913,2743.005C939.58,2743.005 982.913,2739.672 1027.913,2739.672C1062.913,2744.672 1096.247,2744.672 1132.913,2744.672C1167.913,2744.672 1202.913,2756.339 1241.247,2756.339C1252.913,2756.339 1264.58,2756.339 1276.247,2754.672Z"/>
        <text x="1636.024px" y="2741.339px" style="font-family:'Blone-Regular', 'Blone';font-size:1666.667px;fill:rgb(1,255,0);">A</text>
        <path d="M2457.923,2752.54C2452.194,2750.754 2446.301,2747.567 2440.401,2742.714C2431.874,2735.699 2422.599,2724.283 2413.356,2709.417C2386.509,2666.238 2356.645,2588.8 2331.534,2543.974C2327.951,2542.977 2320.058,2540.986 2309.889,2539.631C2279.522,2535.584 2224.055,2532.658 2121.024,2532.658C2095.317,2532.658 2073.176,2554.009 2048.755,2601.566C2047.821,2603.385 2046.744,2605.084 2045.543,2606.645C2044.392,2610.76 2041.831,2620.104 2040.213,2627.44C2035.071,2650.753 2029.373,2678.768 2023.453,2693.567L2023.318,2693.901C2006.273,2735.294 1988.819,2757.205 1972.554,2770.028C1949.232,2788.416 1927.284,2787.577 1906.293,2793.329C1894.468,2797.048 1883.259,2804.739 1871.532,2810.129C1859.607,2815.61 1847.319,2819.324 1834.357,2819.324C1834.143,2819.324 1833.928,2819.321 1833.714,2819.316C1686.11,2815.431 1610.951,2732.33 1610.951,2631.339C1610.951,2555.075 1633.227,2487.413 1663.273,2416.514C1687.784,2341.219 1710.669,2261.006 1731.93,2169.42L1731.955,2169.311C1735.184,2155.591 1740.789,2142.411 1747.116,2128.949C1753.748,2114.839 1761.571,2100.313 1764.955,2082.548C1765.265,2080.92 1765.681,2079.321 1766.199,2077.765C1807.115,1955.019 1831.379,1859.745 1891.031,1760.846C1919.109,1713.401 1918.058,1678.793 1991.898,1611.985L1992.091,1611.813C2008.773,1596.984 2031.685,1566.558 2063.197,1553.583L2063.535,1553.446C2139.152,1523.551 2176.142,1513.353 2237.69,1513.353C2322.713,1513.353 2380.299,1541.72 2420.489,1579.1C2479.925,1634.381 2501.153,1710.924 2514.274,1751.38C2514.338,1751.577 2514.401,1751.776 2514.461,1751.975C2532.776,1811.913 2561.07,1868.525 2579.405,1928.457C2632.262,2095.291 2665.361,2202.913 2719.736,2344.765C2766.756,2440.772 2807.763,2547.461 2807.763,2673.005C2807.763,2678.016 2803.353,2700.73 2800.848,2708.246C2800.042,2710.663 2798.994,2712.962 2797.725,2715.094C2749.55,2796.026 2681.02,2805.991 2619.357,2805.991C2606.289,2805.991 2566.443,2805.24 2526.847,2792.565C2501.823,2784.553 2477.138,2771.694 2457.923,2752.54ZM2040.922,2611.468C2038.697,2613.323 2036.237,2614.808 2033.609,2615.859C2035.78,2614.99 2038.395,2613.737 2040.922,2611.468ZM1834.357,2786.339C1857.69,2786.339 1877.69,2768.005 1899.357,2761.339C1929.357,2753.005 1962.69,2764.672 1997.69,2679.672C2007.69,2654.672 2016.024,2588.005 2024.357,2584.672C2056.024,2523.005 2087.69,2499.672 2121.024,2499.672C2339.357,2499.672 2347.69,2513.005 2352.69,2521.339C2389.357,2584.672 2436.024,2721.339 2469.357,2721.339L2469.357,2719.672C2511.024,2771.339 2599.357,2773.005 2619.357,2773.005C2672.69,2773.005 2732.69,2766.339 2774.357,2696.339C2776.024,2691.339 2779.357,2676.339 2779.357,2673.005C2779.357,2553.005 2739.357,2451.339 2694.357,2359.672C2639.357,2216.339 2606.024,2108.005 2552.69,1939.672C2534.357,1879.672 2506.024,1823.005 2487.69,1763.005C2467.69,1701.339 2429.357,1546.339 2237.69,1546.339C2179.357,1546.339 2144.357,1556.339 2072.69,1584.672C2044.357,1596.339 2024.357,1624.672 2009.357,1638.005C1939.357,1701.339 1941.024,1734.672 1914.357,1779.672C1856.024,1876.339 1832.69,1969.672 1792.69,2089.672C1786.024,2124.672 1766.024,2149.672 1759.357,2178.005C1737.69,2271.339 1714.357,2353.005 1689.357,2429.672C1661.024,2496.339 1639.357,2559.672 1639.357,2631.339C1639.357,2718.005 1707.69,2783.005 1834.357,2786.339ZM2184.357,2256.339C2171.024,2248.005 2141.024,2226.339 2141.024,2204.672C2141.024,2203.005 2144.357,2199.672 2144.357,2199.672C2144.357,2198.005 2139.357,2191.339 2139.357,2186.339C2137.69,2166.339 2137.69,2146.339 2137.69,2128.005C2137.69,2036.339 2187.69,1968.005 2187.69,1966.339C2194.357,1954.672 2209.357,1939.672 2221.024,1939.672C2266.024,1939.672 2279.357,2063.005 2279.357,2063.005C2286.024,2103.005 2292.69,2146.339 2292.69,2189.672C2292.69,2258.005 2207.69,2258.005 2201.024,2258.005C2192.69,2258.005 2186.024,2258.005 2184.357,2256.339ZM2172.266,2205.82C2173.552,2207.5 2175.007,2209.291 2176.227,2210.51C2182.122,2216.406 2188.892,2221.41 2194.127,2224.906C2196.136,2224.96 2198.876,2225.02 2201.024,2225.02C2203.737,2225.02 2222.404,2225.121 2240.38,2218.168C2251.622,2213.82 2264.284,2207.065 2264.284,2189.672C2264.284,2148.476 2257.806,2107.3 2251.468,2069.273C2251.349,2068.557 2251.25,2067.837 2251.172,2067.114C2251.172,2067.114 2247.013,2027.847 2235.028,1996.453C2232.44,1989.675 2229.517,1983.274 2225.984,1978.123C2224.74,1976.308 2223.875,1974.057 2222.47,1973.11C2220.029,1975.187 2213.405,1980.998 2211.36,1984.576L2211.395,1984.441C2210.799,1985.603 2210.127,1986.8 2209.371,1988.024C2202.239,1999.567 2166.097,2055.366 2166.097,2128.005C2166.097,2144.682 2166.058,2162.819 2167.459,2181.01C2169.354,2186.798 2172.763,2197.514 2172.763,2199.672C2172.763,2201.752 2172.594,2203.809 2172.266,2205.82ZM1717.69,2401.339C1716.024,2411.339 1712.69,2424.672 1706.024,2433.005C1709.357,2423.005 1712.69,2413.005 1717.69,2401.339Z"/>
        <text x="2779.357px" y="2741.339px" style="font-family:'Blone-Regular', 'Blone';font-size:1666.667px;fill:rgb(255,4,0);">R</text>
        <path d="M3798.817,2464.423C3801.492,2468.531 3822.631,2501.323 3836.261,2532.349C3848.421,2560.029 3857.763,2591.739 3857.763,2621.339C3857.763,2705.944 3837.893,2724.951 3817.424,2737.506C3808.922,2742.72 3798.372,2744.897 3787.593,2754.969C3779.71,2762.953 3774.42,2772.243 3759.982,2781.211C3740.124,2793.546 3700.535,2805.991 3601.024,2805.991C3546.538,2805.991 3507.372,2791.579 3478.214,2769.349C3443.419,2742.822 3422.299,2704.715 3407.818,2662.187C3395.117,2624.888 3387.68,2584.141 3378.676,2546.927C3378.396,2545.768 3378.17,2544.591 3378.001,2543.403C3360.147,2418.431 3287.138,2391.514 3261.392,2384.549C3256.73,2389.311 3248.347,2398.28 3243.745,2405.661C3241.318,2409.554 3238.418,2416.312 3237.767,2417.856C3237.991,2469.017 3249.43,2520.194 3249.43,2573.005C3249.43,2643.891 3233.703,2807.658 3086.024,2807.658C3077.69,2807.658 3071.024,2809.324 3062.69,2809.324C3062.399,2809.324 3062.108,2809.319 3061.817,2809.309C3011.737,2807.52 2970.558,2795.218 2920.478,2771.967L2920.355,2771.909C2821.916,2725.585 2812.618,2631.18 2812.618,2534.672C2812.618,2490.539 2815.925,2444.729 2822.615,2390.654C2822.488,2331.436 2817.618,2272.091 2817.618,2203.005C2817.618,2138.005 2802.618,2004.672 2802.618,1906.339C2802.618,1806.007 2807.657,1732.693 2818.626,1678.488C2831.014,1617.271 2851.267,1578.236 2879.093,1551.345C2914.252,1517.366 2963.204,1503.084 3030.365,1492.014C3031.687,1491.796 3033.021,1491.686 3034.357,1491.686C3082.69,1491.686 3109.357,1495.02 3157.69,1495.02C3214.357,1495.02 3266.024,1483.353 3322.69,1483.353C3358.962,1483.353 3396.866,1484.984 3434.778,1485.02C3439.262,1484.585 3453.784,1483.353 3474.357,1483.353C3502.9,1483.353 3544.628,1486.193 3575.074,1503.319C3575.294,1503.443 3575.513,1503.57 3575.73,1503.7C3601.625,1519.237 3706.521,1561.638 3746.227,1601.344C3747.059,1602.176 3747.849,1603.064 3748.593,1604.003C3822.309,1697.025 3834.609,1737.383 3859.181,1811.098C3860.447,1814.896 3861.097,1818.933 3861.097,1823.005C3861.097,1834.284 3866.73,1846.794 3871.43,1859.952C3879.166,1881.613 3886.097,1904.043 3886.097,1924.672C3886.097,2021.606 3858.469,2129.334 3795.021,2245.655L3794.894,2245.887C3786.414,2261.15 3770.233,2274.44 3752.935,2287.533C3746.045,2292.747 3739.011,2298.072 3733.126,2304.272C3728.665,2308.973 3724.43,2313.913 3724.43,2321.339C3724.43,2333.891 3732.732,2348.755 3741.77,2365.17C3760.556,2399.291 3786.092,2435.895 3798.817,2464.423ZM3086.024,2774.672C3211.024,2774.672 3221.024,2633.005 3221.024,2573.005C3221.024,2519.672 3209.357,2468.005 3209.357,2416.339C3209.357,2393.005 3246.024,2349.672 3257.69,2349.672C3262.69,2353.005 3381.024,2363.005 3406.024,2538.005C3431.024,2641.339 3442.69,2773.005 3601.024,2773.005C3752.69,2773.005 3752.69,2746.339 3769.357,2729.672C3801.024,2699.672 3829.357,2724.672 3829.357,2621.339C3829.357,2559.672 3777.69,2488.005 3774.357,2481.339C3754.357,2434.672 3696.024,2364.672 3696.024,2321.339C3696.024,2273.005 3754.357,2258.005 3771.024,2228.005C3831.024,2118.005 3857.69,2016.339 3857.69,1924.672C3857.69,1891.339 3832.69,1853.005 3832.69,1823.005C3809.357,1753.005 3797.69,1714.672 3727.69,1626.339C3689.357,1588.005 3587.69,1548.005 3562.69,1533.005C3536.024,1518.005 3499.357,1516.339 3474.357,1516.339C3451.024,1516.339 3436.024,1518.005 3436.024,1518.005C3397.69,1518.005 3359.357,1516.339 3322.69,1516.339C3266.024,1516.339 3214.357,1528.005 3157.69,1528.005C3109.357,1528.005 3082.69,1524.672 3034.357,1524.672C2882.69,1549.672 2831.024,1583.005 2831.024,1906.339C2831.024,2004.672 2846.024,2138.005 2846.024,2203.005C2846.024,2273.005 2851.024,2333.005 2851.024,2393.005C2844.357,2446.339 2841.024,2491.339 2841.024,2534.672C2841.024,2618.005 2846.024,2701.339 2931.024,2741.339C2977.69,2763.005 3016.024,2774.672 3062.69,2776.339C3071.024,2776.339 3077.69,2774.672 3086.024,2774.672ZM3292.69,2096.339C3249.357,2079.672 3226.024,2036.339 3207.69,2003.005C3209.357,2003.005 3212.69,2001.339 3212.69,1996.339C3212.69,1979.672 3207.69,1959.672 3207.69,1939.672C3207.69,1913.005 3229.357,1851.339 3249.357,1851.339C3466.024,1851.339 3442.69,1898.005 3451.024,1918.005C3459.357,1936.339 3462.69,1953.005 3462.69,1976.339C3439.357,2046.339 3391.024,2096.339 3292.69,2096.339ZM3255.516,1884.337C3251.549,1892.817 3236.097,1926.678 3236.097,1939.672C3236.097,1959.672 3241.097,1979.672 3241.097,1996.339C3241.097,1998.334 3241.004,2000.236 3240.827,2002.049C3253.96,2025.564 3270.541,2051.15 3297.501,2063.306L3297.503,2063.307C3374.115,2061.819 3414.244,2024.647 3434.179,1970.212C3433.67,1956.137 3431.274,1945.221 3425.902,1933.403C3425.747,1933.062 3425.598,1932.718 3425.453,1932.372C3423.954,1928.774 3422.798,1924.838 3421.898,1920.557C3421.282,1917.628 3422.389,1913.3 3419.132,1909.657C3413.48,1903.336 3402.334,1898.935 3381.596,1894.366C3354.516,1888.399 3314.607,1884.584 3255.516,1884.337Z"/>
        <g transform="matrix(1666.666667,0,0,1666.666667,4952.690422,2741.338583)">
        </g>
        <text x="3887.69px" y="2741.339px" style="font-family:'Blone-Regular', 'Blone';font-size:1666.667px;fill:rgb(0,255,199);">P</text>
        <path d="M3924.227,1915.085C3923.862,1912.698 3922.618,1904.226 3922.618,1899.672C3922.618,1841.339 3934.284,1781.339 3934.284,1723.005C3934.284,1711.339 3932.618,1698.005 3932.618,1686.339C3932.618,1659.177 3943.424,1610.339 3968.645,1563.776C3978.113,1546.297 3995.833,1532.243 4019,1523.372C4058.845,1508.115 4116.789,1506.686 4149.357,1506.686C4216.272,1506.686 4299.85,1510.014 4371.875,1515.02C4456.787,1515.021 4541.675,1515.297 4623.19,1533.977C4628.23,1535.132 4632.905,1537.852 4636.719,1541.847C4651.145,1556.961 4676.846,1559.91 4703.123,1566.093C4739.806,1574.725 4777.707,1586.158 4804.56,1613.01C4804.903,1613.354 4805.239,1613.706 4805.567,1614.067C4806.192,1614.653 4807.447,1615.827 4808.538,1616.839C4825.231,1632.314 4879.577,1683.181 4920.461,1754.528C4949.222,1804.718 4971.097,1864.769 4971.097,1929.672C4971.097,2058.535 4935.453,2105.85 4911.073,2184.213C4910.103,2187.333 4908.736,2190.252 4907.029,2192.879C4905.998,2195.115 4889.451,2230.859 4874.419,2253.995C4862.635,2272.13 4848.75,2287.636 4834.987,2295.91C4770.651,2360.408 4742.108,2394.196 4678.563,2423.483C4669.803,2427.897 4608.76,2459.324 4546.024,2459.324C4514.357,2459.324 4486.024,2449.324 4454.357,2449.324C4425.169,2449.324 4400.946,2451.542 4382.432,2458.309C4364.772,2464.764 4354.43,2476.412 4354.43,2498.005C4354.43,2552.519 4352.06,2624.364 4331.729,2682.676C4308.74,2748.61 4264.894,2799.324 4181.024,2799.324C4119.633,2799.324 4051.243,2790.089 3999.154,2738C3998.603,2737.449 3998.07,2736.873 3997.557,2736.275C3932.571,2660.457 3926.992,2578.236 3916.161,2475.341C3916.021,2474.013 3915.951,2472.676 3915.951,2471.339C3915.951,2364.672 3912.618,2253.005 3912.618,2146.339C3912.618,2066.504 3920.809,1989.962 3924.227,1915.085ZM4326.024,2498.005C4326.024,2434.672 4372.69,2416.339 4454.357,2416.339C4486.024,2416.339 4514.357,2426.339 4546.024,2426.339C4604.357,2426.339 4661.024,2396.339 4667.69,2393.005C4729.357,2364.672 4756.024,2331.339 4819.357,2268.005C4851.024,2253.005 4881.024,2176.339 4884.357,2173.005C4907.69,2098.005 4942.69,2053.005 4942.69,1929.672C4942.69,1768.005 4787.69,1641.339 4786.024,1638.005C4739.357,1591.339 4652.69,1603.005 4617.69,1566.339C4537.69,1548.005 4454.357,1548.005 4371.024,1548.005C4299.357,1543.005 4216.024,1539.672 4149.357,1539.672C4106.024,1539.672 4014.357,1541.339 3992.69,1581.339C3971.024,1621.339 3961.024,1663.005 3961.024,1686.339C3961.024,1698.005 3962.69,1711.339 3962.69,1723.005C3962.69,1781.339 3951.024,1841.339 3951.024,1899.672C3951.024,1904.672 3952.69,1909.672 3952.69,1914.672C3949.357,1989.672 3941.024,2066.339 3941.024,2146.339C3941.024,2253.005 3944.357,2364.672 3944.357,2471.339C3954.357,2566.339 3957.69,2643.005 4017.69,2713.005C4064.357,2759.672 4126.024,2766.339 4181.024,2766.339C4319.357,2766.339 4326.024,2599.672 4326.024,2498.005ZM4389.357,2126.339C4329.357,2114.672 4301.024,2103.005 4301.024,2003.005C4301.024,1939.672 4311.024,1873.005 4417.69,1873.005C4489.357,1879.672 4539.357,1949.672 4539.357,2021.339C4539.357,2084.672 4482.69,2129.672 4412.69,2129.672C4404.357,2129.672 4396.024,2128.005 4389.357,2126.339ZM4395.336,2094.092C4400.298,2095.332 4406.488,2096.686 4412.69,2096.686C4441.152,2096.686 4467.037,2088.076 4485.672,2072.489C4500.854,2059.792 4510.951,2042.317 4510.951,2021.339C4510.951,1965.69 4471.95,1911.803 4416.512,1905.994C4376.767,1906.174 4354.004,1915.537 4342.105,1934.011C4329.866,1953.013 4329.43,1978.528 4329.43,2003.005C4329.43,2040.263 4331.875,2061.857 4342.741,2074.432C4353.815,2087.245 4371.269,2089.377 4394.048,2093.806C4394.479,2093.89 4394.909,2093.985 4395.336,2094.092Z"/>
    </g>
    <g transform="matrix(1.136028,0.135805,-0.116951,0.978312,-493.490034,-114.111413)">
        <text x="667.913px" y="2741.339px" style="font-family:'Blone-Regular', 'Blone';font-size:1666.667px;fill:url(#_Linear4);">L</text>
        <g transform="matrix(1666.666667,0,0,1666.666667,4952.690422,2741.338583)">
        </g>
        <text x="1636.024px" y="2741.339px" style="font-family:'Blone-Regular', 'Blone';font-size:1666.667px;fill:url(#_Linear5);">ARP</text>
    </g>
    <g transform="matrix(1,0,0,1,21.19257,0)">
        <path d="M3915.582,1380.263C3915.582,1380.263 3825.161,1393.92 3829.399,1442.428" style="fill:none;stroke:white;stroke-width:25.83px;"/>
    </g>
    <path d="M3600.519,1497.041C3584.978,1446.666 3690.941,1442.428 3690.941,1442.428" style="fill:none;stroke:white;stroke-width:25.83px;"/>
    <defs>
        <linearGradient id="_Linear1" x1="0" y1="0" x2="1" y2="0" gradientUnits="userSpaceOnUse" gradientTransform="matrix(-1.008911,1253.812039,-1253.812039,-1.008911,388.052978,124.936866)"><stop offset="0" style="stop-color:rgb(132,170,255);stop-opacity:1"/><stop offset="0.64" style="stop-color:rgb(63,70,255);stop-opacity:1"/><stop offset="1" style="stop-color:rgb(21,0,179);stop-opacity:1"/></linearGradient>
        <linearGradient id="_Linear2" x1="0" y1="0" x2="1" y2="0" gradientUnits="userSpaceOnUse" gradientTransform="matrix(-120.024164,460.1117,-1072.534182,-68.312138,3350.878033,1262.270032)"><stop offset="0" style="stop-color:rgb(255,112,182);stop-opacity:1"/><stop offset="0.65" style="stop-color:rgb(255,0,125);stop-opacity:1"/><stop offset="1" style="stop-color:rgb(219,0,0);stop-opacity:1"/></linearGradient>
        <linearGradient id="_Linear4" x1="0" y1="0" x2="1" y2="0" gradientUnits="userSpaceOnUse" gradientTransform="matrix(127.076432,1836.927004,-409.837271,38.230302,677.077496,1399.707438)"><stop offset="0" style="stop-color:white;stop-opacity:0.46"/><stop offset="0.42" style="stop-color:rgb(231,231,231);stop-opacity:0.46"/><stop offset="0.56" style="stop-color:rgb(174,174,174);stop-opacity:0.46"/><stop offset="0.68" style="stop-color:rgb(115,115,115);stop-opacity:0.46"/><stop offset="1" style="stop-color:black;stop-opacity:0.46"/></linearGradient>
        <linearGradient id="_Linear5" x1="0" y1="0" x2="1" y2="0" gradientUnits="userSpaceOnUse" gradientTransform="matrix(127.076432,1836.927004,-409.837271,38.230302,677.077496,1399.707438)"><stop offset="0" style="stop-color:white;stop-opacity:0.46"/><stop offset="0.42" style="stop-color:rgb(231,231,231);stop-opacity:0.46"/><stop offset="0.56" style="stop-color:rgb(174,174,174);stop-opacity:0.46"/><stop offset="0.68" style="stop-color:rgb(115,115,115);stop-opacity:0.46"/><stop offset="1" style="stop-color:black;stop-opacity:0.46"/></linearGradient>
    </defs>
</svg>
